<svg xmlns="http://www.w3.org/2000/svg" viewBox="0 0 64 64" role="img" aria-label="Gate command emblem">
  <defs>
    <linearGradient id="stone" x1="0" x2="1" y1="0" y2="1">
      <stop offset="0" stop-color="#fff1bf"/>
      <stop offset="0.52" stop-color="#c9933c"/>
      <stop offset="1" stop-color="#66401a"/>
    </linearGradient>
    <linearGradient id="seal" x1="0" x2="1" y1="0" y2="1">
      <stop offset="0" stop-color="#fff7ce"/>
      <stop offset="1" stop-color="#70db8a"/>
    </linearGradient>
  </defs>
  <circle cx="32" cy="32" r="23" fill="#160f08" opacity="0.55"/>
  <path fill="url(#stone)" d="M15 52V24c0-10 8-17 17-17s17 7 17 17v28h-9V25c0-5-3-9-8-9s-8 4-8 9v27z"/>
  <path fill="#150d07" d="M25 52V27c0-5 3-9 7-9s7 4 7 9v25z" opacity="0.85"/>
  <path d="M16 31h32M17 41h30M23 15l-5 7M41 15l5 7" stroke="#fff1bf" stroke-width="2.6" stroke-linecap="round" opacity="0.72"/>
  <circle cx="32" cy="37" r="11" fill="url(#seal)"/>
  <circle cx="32" cy="37" r="6" fill="#150d07"/>
  <path d="M32 27v20M22 37h20" stroke="#fff7ce" stroke-width="2.4" stroke-linecap="round" opacity="0.75"/>
</svg>
